<svg width="81" height="31" viewBox="0 0 81 31" fill="none" xmlns="http://www.w3.org/2000/svg">
<g clip-path="url(#clip0_21_10)">
<path d="M23.0617 10.8048V21.6137C23.0617 22.6146 23.5241 22.9749 24.2601 22.9749C24.9959 22.9749 25.4584 22.6146 25.4584 21.6137V10.8048H27.6447V21.4736C27.6447 23.7155 26.4675 24.9966 24.1969 24.9966C21.9264 24.9966 20.7491 23.7155 20.7491 21.4736V10.8048H23.0617Z" fill="#CEF65F"/>
<path d="M31.3237 14.6679H31.2817V24.8163H29.2003V10.8048H32.1015L34.435 19.1917H34.477V10.8048H36.5373V24.8164H34.1616L31.3237 14.6679Z" fill="#CEF65F"/>
<path d="M38.1978 10.8048H40.5104V24.8164H38.1978V10.8048Z" fill="#CEF65F"/>
<path d="M45.6608 22.2343H45.7027L47.4477 10.8047H49.571L47.3006 24.8163H43.8527L41.5822 10.8047H43.9159L45.6608 22.2343Z" fill="#CEF65F"/>
<path d="M52.9556 16.7097H56.1301V18.7114H52.9556V22.8148H56.9499V24.8164H50.643V10.8048H56.9499V12.8064H52.9556V16.7097Z" fill="#CEF65F"/>
<path d="M63.2148 24.8163C63.0886 24.4561 63.0045 24.2359 63.0045 23.0949V20.8931C63.0045 19.5919 62.542 19.1115 61.4909 19.1115H60.692V24.8162H58.3795V10.8048H61.8694C64.266 10.8048 65.2962 11.8657 65.2962 14.0275V15.1284C65.2962 16.5696 64.8126 17.4903 63.7825 17.9507V17.9908C64.9387 18.451 65.3172 19.492 65.3172 20.9533V23.115C65.3172 23.7955 65.3382 24.2961 65.5695 24.8164L63.2148 24.8163ZM60.692 12.8064V17.11H61.5961C62.458 17.11 62.9835 16.7497 62.9835 15.6288V14.2477C62.9835 13.2468 62.6261 12.8065 61.8062 12.8065L60.692 12.8064Z" fill="#CEF65F"/>
<path d="M69.9421 10.6446C72.1916 10.6446 73.3479 11.9257 73.3479 14.1675V14.6079H71.1615V14.0274C71.1615 13.0266 70.7409 12.6463 70.0052 12.6463C69.2694 12.6463 68.8489 13.0266 68.8489 14.0274C68.8489 15.0483 69.3115 15.8089 70.8252 17.0699C72.7593 18.6913 73.369 19.8522 73.369 21.4537C73.369 23.6954 72.1918 24.9766 69.9211 24.9766C67.6507 24.9766 66.4734 23.6954 66.4734 21.4537V20.5928H68.6597V21.5937C68.6597 22.5945 69.1221 22.9548 69.858 22.9548C70.5939 22.9548 71.0565 22.5946 71.0565 21.5937C71.0565 20.5728 70.5939 19.8122 69.0801 18.5512C67.1461 16.9299 66.5363 15.7689 66.5363 14.1675C66.5363 11.9257 67.6926 10.6446 69.9421 10.6446Z" fill="#CEF65F"/>
<path d="M77.0057 16.7097H80.1805V18.7114H77.0057V22.8148H81V24.8164H74.693V10.8048H81V12.8064H77.0057V16.7097Z" fill="#CEF65F"/>
<path d="M50.6431 29.6343H51.4024C51.4024 29.7908 51.4721 29.9161 51.6113 30.0103C51.7503 30.1044 51.9439 30.1515 52.1921 30.1515C52.3799 30.1515 52.5323 30.1157 52.6498 30.0438C52.767 29.9719 52.8258 29.8802 52.8258 29.7685C52.8258 29.6758 52.7881 29.6001 52.7127 29.541C52.6371 29.4819 52.5392 29.4373 52.4183 29.407C52.2977 29.3766 52.1644 29.3494 52.0187 29.3255C51.8728 29.3017 51.7261 29.2681 51.5786 29.225C51.4311 29.1818 51.2969 29.1261 51.1763 29.0574C51.0556 28.9887 50.9575 28.8881 50.882 28.7557C50.8065 28.6233 50.7689 28.4628 50.7689 28.2745C50.7689 28.0224 50.8936 27.8036 51.1435 27.6185C51.3932 27.4334 51.7327 27.3407 52.1618 27.3407C52.41 27.3407 52.6279 27.3735 52.8156 27.4389C53.0035 27.5043 53.1485 27.5914 53.2507 27.6998C53.3529 27.8084 53.4292 27.9218 53.4796 28.0399C53.53 28.1579 53.555 28.2808 53.555 28.4086H52.7956C52.7956 28.2649 52.7454 28.1467 52.6448 28.0541C52.5443 27.9616 52.3832 27.9152 52.162 27.9152C51.9809 27.9152 51.8309 27.9479 51.7119 28.0133C51.5928 28.0787 51.5334 28.1658 51.5334 28.2743C51.5334 28.3797 51.5711 28.4667 51.6465 28.5353C51.7221 28.6039 51.8201 28.6541 51.9408 28.686C52.0615 28.718 52.1956 28.7468 52.3431 28.7723C52.4906 28.7979 52.6374 28.8306 52.7832 28.8704C52.929 28.9103 53.0623 28.9613 53.1829 29.0236C53.3036 29.0859 53.4017 29.18 53.4773 29.3061C53.5527 29.4323 53.5904 29.5863 53.5904 29.7682C53.5904 30.0428 53.4688 30.271 53.2257 30.453C52.9826 30.635 52.6381 30.7258 52.1922 30.7258C51.9206 30.7258 51.6818 30.6939 51.4755 30.63C51.2693 30.5662 51.1075 30.4809 50.9902 30.3739C50.8728 30.267 50.7856 30.1513 50.7286 30.0267C50.6715 29.9024 50.6431 29.7716 50.6431 29.6343Z" fill="#CEF65F"/>
<path d="M54.1435 30.6541V27.4123H55.4008C56.4066 27.4123 56.9096 27.7859 56.9096 28.5329C56.9096 28.9095 56.7814 29.1978 56.5249 29.3972C56.2684 29.5968 55.8938 29.6965 55.4008 29.6965H54.8727V30.6542L54.1435 30.6541ZM54.8727 29.1219H55.4612C55.9205 29.106 56.1501 28.9095 56.1501 28.5329C56.1501 28.3351 56.0873 28.1946 55.9615 28.1116C55.8358 28.0285 55.6472 27.987 55.3957 27.987H54.8727V29.1219Z" fill="#CEF65F"/>
<path d="M56.8091 30.6541L58.0614 27.4123H58.861L60.1284 30.6541H59.3488L59.1175 29.9933H57.7947L57.5634 30.6541H56.8091ZM57.996 29.4188H58.9163L58.4537 28.0923L57.996 29.4188Z" fill="#CEF65F"/>
<path d="M60.229 29.0069C60.229 28.4707 60.3823 28.0589 60.6891 27.7715C60.996 27.4841 61.4125 27.3406 61.9389 27.3406C62.4217 27.3406 62.793 27.4548 63.0529 27.683C63.3128 27.9113 63.4428 28.1835 63.4428 28.4994H62.7034C62.7034 28.3303 62.6355 28.1906 62.4997 28.0805C62.364 27.9703 62.1786 27.9153 61.944 27.9153C61.6757 27.9153 61.4536 28.0047 61.2777 28.1836C61.1016 28.3624 61.0136 28.6369 61.0136 29.0072C61.0136 29.3806 61.1031 29.6649 61.2826 29.8596C61.4618 30.0543 61.6824 30.1516 61.944 30.1516C62.1754 30.1516 62.3622 30.0894 62.5048 29.9649C62.6473 29.8404 62.7185 29.692 62.7185 29.5196H63.4478C63.4478 29.8388 63.317 30.1198 63.0555 30.3623C62.794 30.605 62.4218 30.7261 61.939 30.7261C61.416 30.7261 61.0002 30.5745 60.6919 30.2713C60.3831 29.9678 60.229 29.5465 60.229 29.0069Z" fill="#CEF65F"/>
<path d="M64.001 30.6541V27.4123H66.4653V27.987H64.7303V28.6526H66.1636V29.2273H64.7303V30.0797H66.4653V30.6542L64.001 30.6541Z" fill="#CEF65F"/>
<path d="M68.2256 27.987V27.4123H70.9665V27.987H69.9606V30.6542H69.2313V27.987H68.2256Z" fill="#CEF65F"/>
<path d="M71.4192 30.6541V27.4123H73.8836V27.987H72.1485V28.6526H73.5818V29.2273H72.1485V30.0797H73.8836V30.6542L71.4192 30.6541Z" fill="#CEF65F"/>
<path d="M74.286 29.0069C74.286 28.4707 74.4393 28.0589 74.7462 27.7715C75.0529 27.4841 75.4695 27.3406 75.996 27.3406C76.4787 27.3406 76.85 27.4548 77.1099 27.683C77.3699 27.9113 77.4997 28.1835 77.4997 28.4994H76.7604C76.7604 28.3303 76.6926 28.1906 76.5568 28.0805C76.421 27.9703 76.2356 27.9153 76.001 27.9153C75.7327 27.9153 75.5106 28.0047 75.3346 28.1836C75.1586 28.3624 75.0706 28.6369 75.0706 29.0072C75.0706 29.3806 75.1601 29.6649 75.3396 29.8596C75.5188 30.0543 75.7395 30.1516 76.001 30.1516C76.2323 30.1516 76.4192 30.0894 76.5618 29.9649C76.7043 29.8404 76.7755 29.692 76.7755 29.5196H77.5049C77.5049 29.8388 77.374 30.1198 77.1125 30.3623C76.8511 30.605 76.4789 30.7261 75.996 30.7261C75.4731 30.7261 75.0572 30.5745 74.7489 30.2713C74.44 29.9678 74.286 29.5465 74.286 29.0069Z" fill="#CEF65F"/>
<path d="M78.058 30.6541V27.4123H78.7872V28.6526H80.271V27.4123H81V30.6541H80.271V29.2271H78.7872V30.6541H78.058Z" fill="#CEF65F"/>
<path d="M18.58 4.73825C19.1009 4.19782 19.402 3.46726 19.3489 2.67342C19.3139 2.11563 19.0992 1.60214 18.7662 1.17898C18.2221 0.465881 17.3415 0 16.3445 0C14.6901 0 13.3536 1.27249 13.3536 2.84778C13.3536 4.30102 14.4972 5.49426 15.9684 5.67021C15.9099 5.73359 15.8751 5.79856 15.8586 5.83659C15.7937 5.97291 15.6522 6.23281 15.4957 6.49419C15.2111 6.89041 14.4437 7.81268 14.3024 7.97116C14.1293 8.1629 13.8746 8.5036 13.7548 8.82063C13.6714 9.03605 13.5583 9.19453 13.3869 9.34839C13.2088 9.50672 13.0423 9.67011 12.8875 9.8459C12.132 10.6953 11.6576 10.8412 11.318 11.0518C10.9386 11.2832 10.7306 11.6351 10.6872 11.7016C10.6822 11.7127 10.6706 11.7253 10.6573 11.7412C10.6041 11.7966 10.5141 11.7919 10.4675 11.7302C10.4026 11.6462 10.3427 11.5606 10.2828 11.4686C10.2412 11.4005 10.2045 11.3165 10.1878 11.2372C10.1711 11.1469 10.1996 11.0898 10.2595 11.0218C10.3477 10.9267 10.4193 10.8348 10.5091 10.7348C10.574 10.6557 10.6223 10.5938 10.6872 10.5082C10.7405 10.4401 10.7871 10.3719 10.7821 10.277C10.7771 10.1406 10.6573 10.0456 10.5807 9.93618C10.5557 9.9014 10.5507 9.86178 10.5507 9.82216C10.5557 9.75396 10.6039 9.69695 10.5259 9.65257C10.5141 9.64788 10.4727 9.62399 10.4309 9.62883C10.4309 9.62883 10.4558 9.58921 10.4426 9.51473C10.4376 9.48615 10.4176 9.45916 10.3844 9.45288C10.3594 9.4482 10.331 9.4482 10.3011 9.44177C10.2179 9.41803 10.1697 9.34038 10.1878 9.2659C10.1996 9.22628 10.1996 9.16935 10.1878 9.09638C10.158 8.94426 10.0397 8.96641 10.0397 8.96641C10.0397 8.96641 9.76018 9.00595 9.53545 8.98221C9.42896 8.97117 9.37567 8.92679 9.36233 8.90774C9.36233 8.90305 9.35733 8.90305 9.35733 8.89662C9.00617 8.39276 8.56511 8.22309 8.40693 8.17251C8.36539 8.16139 8.33546 8.13289 8.32871 8.09327C8.30377 7.98545 8.27042 7.82705 8.1023 7.78743C7.90093 7.73185 7.66299 7.87763 7.65795 7.87763C7.18186 8.15981 6.79077 8.56696 6.48626 9.00913C6.17002 9.4671 5.92201 9.93777 6.05848 10.4908C6.1784 10.9884 6.51121 11.4243 6.96718 11.73C7.34674 11.9851 7.70953 11.9218 8.11906 12.001C8.39859 12.0565 8.72481 12.0692 8.96281 12.3862C9.03428 12.4813 9.13585 12.5827 9.12926 12.708C9.12417 12.8378 9.02276 12.9741 8.93279 13.0645C8.80136 13.2006 8.6315 13.2799 8.49349 13.4099C8.35698 13.5352 8.24381 13.6809 8.16718 13.8458C7.91257 14.3736 7.84097 14.6839 7.81602 14.8252C7.79108 14.9614 7.58301 15.6 7.56635 15.6506V15.6553C7.48804 15.8314 7.41152 16.0056 7.33333 16.1879C7.22683 16.4303 7.13689 16.7251 6.97053 16.9422C6.82232 17.1388 6.51288 17.3605 6.32798 17.5252C5.66393 18.0973 5.39433 18.7646 4.65199 19.3354C4.53217 19.4098 4.41394 19.4873 4.35072 19.492C4.32064 19.497 4.29244 19.497 4.25083 19.497C4.16268 19.497 4.08102 19.5126 3.99779 19.5491C4.01289 19.5173 4.02945 19.4873 4.04444 19.4539C4.13605 19.2576 4.44056 18.5048 4.50555 18.3289C4.57872 18.1262 4.64695 17.9231 4.71027 17.7173C4.73186 17.6475 4.75356 17.5779 4.77347 17.5065C4.83343 17.2989 4.88836 17.0882 4.94161 16.8787C4.99151 16.6824 5.03501 16.5097 5.03647 16.5081C5.03155 16.5128 4.64035 16.8693 4.45387 17.0483C3.89297 17.5858 3.36551 18.1514 2.89434 18.7712C2.49821 19.294 2.13711 19.8439 1.82422 20.4177C1.74088 20.5729 1.65943 20.7315 1.58449 20.8915C1.5761 20.9087 1.57117 20.9184 1.57117 20.9199C1.55294 20.9389 0 22.3952 0 22.3952L1.0087 22.4301C1.0087 22.4301 0.945492 22.5332 0.945492 22.5394C0.945492 22.5458 0.942141 22.5492 0.945492 22.554C0.948843 22.5699 0.960374 22.5887 0.982077 22.6109C1.00545 22.6377 1.03207 22.6601 1.0587 22.6822C1.18008 22.7804 1.32002 22.8565 1.46981 22.9057C1.50136 22.9166 1.53302 22.9264 1.56792 22.9326C1.58962 22.9358 1.64622 22.9452 1.66111 22.9217L1.72442 22.8185L2.287 23.6458C2.287 23.6458 2.7414 21.763 2.7913 21.5684C2.79622 21.5621 2.80293 21.5525 2.81299 21.5413C2.81299 21.5413 2.89622 21.5066 2.99108 21.4559C3.41216 21.2639 3.75167 21.0487 3.9414 20.9281C3.98312 20.9122 4.0479 20.8488 4.07788 20.8093C4.13616 20.7413 4.67379 20.1518 4.75534 20.0503C4.78029 20.0154 4.80859 19.9886 4.8435 19.96C5.09307 19.8033 5.35607 19.6543 5.59916 19.4957C5.96194 19.2581 6.32315 19.0204 6.66268 18.7493C7.00722 18.472 7.27515 18.2518 7.55481 17.9062C7.60135 17.8443 7.64297 17.77 7.69789 17.7098C7.82273 17.5623 7.94087 17.4084 8.04918 17.2519C8.3588 16.7763 8.63833 16.2897 8.9046 15.7906C8.91635 15.7684 9.01109 15.5989 9.0828 15.4688C9.12433 15.3943 9.2259 15.3833 9.28419 15.4466L9.28911 15.4514C9.53203 15.7333 9.87001 15.8998 10.1446 16.1534C10.3345 16.323 10.5192 16.5146 10.6307 16.7414C10.7655 17.0105 10.7839 17.3227 10.7089 17.6084C10.6707 17.746 10.6041 17.8667 10.5458 17.9966C10.4875 18.1266 10.4376 18.2452 10.3928 18.3736C10.3129 18.6019 10.2479 18.841 10.2346 19.0838C10.1813 20.0232 10.1931 20.7173 10.0748 21.1707C10.0632 21.2057 10.0865 21.2499 10.1213 21.2656C10.1931 21.3006 10.2346 21.3164 10.3294 21.3339V21.3386C10.3461 21.7743 10.371 22.2674 10.3827 22.4764C10.4076 22.8837 10.1079 23.3925 10.1079 23.3925C10.043 23.5066 9.79838 23.8457 9.61541 24.0993C9.51385 24.2401 9.33072 24.473 9.28911 24.5221C8.67661 25.302 8.4452 26.7584 8.36706 27.1481C8.33712 27.3003 8.30218 27.4144 8.26716 27.5049C8.22555 27.5998 8.16726 27.6918 8.08896 27.7709C7.78773 28.0722 7.77945 28.2798 7.70953 28.5254C7.63793 28.7631 7.50817 29.1372 7.48972 29.1829L7.48479 29.1941C7.45995 29.2448 7.20523 29.7472 7.10534 30.0928C7.00544 30.4538 7.18857 30.5285 7.18857 30.5285C7.24695 30.6695 7.44989 30.687 7.44989 30.687C7.48668 30.7425 7.62808 30.7661 7.66959 30.7774H7.69957L8.22221 30.7548C8.44195 30.7394 8.51858 30.7441 8.55511 30.5901C8.59172 30.4381 8.50849 30.2497 8.58004 29.6568C8.65167 29.0641 8.72815 28.8184 8.87633 28.286C9.02451 27.7535 9.20263 27.606 9.82014 26.6837C10.4376 25.7599 10.4974 25.5128 10.6173 25.2862C10.742 25.0596 10.7771 25.031 11.3079 24.4432C11.8373 23.8551 11.8788 23.6634 11.9388 23.5034C11.9755 23.4065 12.0337 23.2324 12.082 23.1073C12.112 23.0279 12.2718 22.6379 12.3018 22.57C12.3018 22.5651 12.3067 22.57 12.3067 22.57C12.3184 22.6539 12.385 23.1625 12.3434 23.4526C12.3384 23.4967 12.2003 24.1944 12.1104 24.6301C11.9788 25.2798 12.2834 26.0389 12.4432 26.5442C12.6029 27.0486 12.7528 27.7441 12.781 28.0722C12.811 28.4001 12.6562 28.7298 12.6562 28.7298C12.5198 29.0517 12.5763 29.24 12.5763 29.24C12.6712 29.5965 13.1672 29.511 13.1672 29.511C13.1672 29.511 13.8913 29.4702 14.0209 29.4809C14.3006 29.5031 14.5286 29.6523 14.6767 29.725C14.8199 29.7946 15.0562 29.7946 15.0928 29.7946H15.0978C15.1395 29.7946 15.509 29.7707 15.6271 29.7502C15.7636 29.7219 15.8236 29.6488 15.8285 29.5918C15.8403 29.4905 15.7703 29.4618 15.7703 29.4618C15.7703 29.4618 15.7936 29.4396 15.7936 29.4065C15.7886 29.3446 15.7286 29.3159 15.7286 29.3159C15.7119 29.2542 15.6222 29.2479 15.6039 29.2479C15.5921 29.213 15.5157 29.2082 15.479 29.2082C15.3476 29.1639 15.3192 29.1639 15.3142 29.1639C15.2842 29.1639 15.256 29.1592 15.226 29.1639C15.1311 29.1687 15.0529 29.0958 15.0529 29.0958C15.0529 29.0958 14.3872 28.508 14.1442 28.3319C13.823 28.0942 13.783 28.0676 13.7514 27.9279C13.7215 27.8026 13.5616 24.2908 13.7115 23.8775C13.7765 23.6903 13.9445 23.1531 13.9861 23.0343C14.0278 22.9089 14.0094 22.0044 13.9977 21.7715C13.9861 21.5447 14.076 21.1136 14.076 21.1136C14.0875 21.0516 14.0992 20.9948 14.106 20.9376C14.106 20.9376 14.106 20.9329 14.1009 20.9329C14.0128 20.9487 13.9411 20.9679 13.8397 20.9724C13.6333 20.9834 13.4767 20.9773 13.1257 20.9329C13.2688 20.9329 13.3936 20.9281 13.5301 20.9106C13.7147 20.8883 13.9046 20.8364 14.0694 20.7745C14.2424 20.7125 14.3856 20.6445 14.4622 20.6097C14.4921 20.5984 14.5038 20.5653 14.4988 20.5351C14.4356 20.2896 14.4039 20.0581 14.4039 19.8061C14.4039 19.54 14.4007 19.2737 14.3922 19.0077C14.3974 18.7616 14.3705 18.5193 14.3373 18.2769C14.3073 18.0679 14.2792 17.8571 14.2076 17.6556C14.191 17.605 14.1293 17.5763 14.0762 17.5875C13.4752 17.7571 12.8046 17.8427 12.5665 17.8646C12.5615 17.8646 12.5615 17.8599 12.5665 17.8599C13.1889 17.7476 13.6485 17.5654 13.958 17.4132C14.0228 17.3785 14.0527 17.3006 14.0228 17.2373L13.9281 17.0217C13.8447 16.7997 13.755 16.5859 13.69 16.3592C13.4936 15.7095 13.4404 15.1771 13.2506 14.5242C13.0775 13.9314 12.8163 13.5733 12.485 13.0979C12.455 13.0583 12.4134 12.9963 12.3603 12.9283C12.1455 12.6462 12.1871 12.2215 12.4501 11.9776C13.4021 11.0884 14.1261 10.2391 14.4824 9.73188C14.5706 9.60206 14.6372 9.45462 14.7203 9.3183C14.8202 9.16625 15.0766 8.81444 15.183 8.66858C15.3678 8.40712 15.5042 8.1251 15.6357 7.83506C15.7722 7.52914 15.9036 7.22335 16.0402 6.91905C16.1185 6.74949 16.1951 6.58471 16.2781 6.42143C16.3082 6.36604 16.3315 6.32632 16.3664 6.29628C16.408 6.26135 16.4562 6.24069 16.5095 6.22811C16.7108 6.19957 16.9139 6.17262 17.1105 6.13779C17.1985 6.12193 17.2952 6.10286 17.365 6.04737C17.4116 6.00306 18.2321 5.35164 18.5717 5.08547C18.5951 5.05054 18.5951 5.03477 18.5882 5.02998V5.04585C18.5401 4.99514 18.4851 4.9666 18.4152 4.97139C18.3835 4.97299 18.3536 4.98078 18.3236 4.99025C18.4185 4.91111 18.5085 4.82867 18.5934 4.73995L18.58 4.73825ZM1.51981 22.3223L2.66153 19.9041L1.88595 20.877C2.11394 20.4126 2.92285 18.8962 4.45408 17.4003C4.48249 17.3732 4.53741 17.3177 4.53741 17.3177L1.51981 22.3208V22.3223ZM12.4049 21.3318C12.4766 21.3207 12.5414 21.3033 12.583 21.2922C12.6245 21.2812 12.6612 21.248 12.6713 21.2066C12.6829 21.1672 12.6962 21.1099 12.7011 21.0813C12.7595 20.7868 13.0274 20.1133 13.337 19.8138C13.337 19.8138 12.8661 20.3461 12.8243 21.3413C12.8243 21.3635 12.8076 21.3809 12.7827 21.3855C12.623 21.4253 12.29 21.4711 11.9272 21.4761C11.5293 21.4808 11.1083 21.4253 10.8453 21.3747C10.8453 21.3747 11.7841 21.4429 12.4014 21.3301L12.4049 21.3318ZM16.2679 1.00781H16.2813C16.2813 1.00781 16.2862 1.01899 16.2862 1.02218C16.2862 1.03176 16.2862 1.03955 16.2813 1.04913C16.2896 1.05392 16.298 1.04913 16.3046 1.04583C16.3147 1.04274 16.3197 1.04583 16.3229 1.05212C16.3379 1.07917 16.2997 1.10612 16.3163 1.13297C16.3962 1.2677 16.4129 1.2677 16.4179 1.27249C16.4246 1.27249 16.4345 1.27249 16.4345 1.28357C16.4345 1.28357 16.4396 1.28826 16.4345 1.29454C16.4312 1.29774 16.4312 1.30412 16.4296 1.30892C16.4262 1.31521 16.4246 1.32149 16.4212 1.32629C16.413 1.34046 16.4029 1.35483 16.3879 1.36581C16.3796 1.37209 16.3713 1.37698 16.3613 1.38018C16.3546 1.38337 16.3464 1.38337 16.3397 1.38487H16.3248L16.2947 1.38966H16.2881C16.2881 1.38966 16.283 1.39435 16.2799 1.39595C16.2764 1.39754 16.2731 1.40064 16.2698 1.40383C16.2649 1.40702 16.2615 1.41022 16.2547 1.41182C16.2465 1.41501 16.238 1.41182 16.2283 1.40552V1.39435C16.2283 1.39435 16.2315 1.38806 16.2348 1.38337C16.2447 1.3722 16.2597 1.3675 16.2714 1.35802C16.2863 1.35003 16.2981 1.34215 16.2981 1.32468C16.2981 1.32 16.2981 1.3184 16.2947 1.31531C16.2914 1.31201 16.2897 1.31201 16.2862 1.31201C16.2862 1.31201 16.2731 1.3168 16.2679 1.32C16.2679 1.32 16.2647 1.32319 16.263 1.32319H16.2446C16.2446 1.32319 16.2413 1.30732 16.2413 1.30412C16.2413 1.29145 16.2496 1.27888 16.2581 1.27089C16.2663 1.26291 16.2746 1.25971 16.2862 1.25971C16.298 1.25971 16.298 1.24863 16.298 1.24863C16.303 1.22648 16.298 1.2154 16.2763 1.19485C16.2596 1.17888 16.2596 1.17259 16.2596 1.14085C16.2596 1.12658 16.2563 1.1155 16.2514 1.10282C16.248 1.09813 16.2465 1.09184 16.243 1.08865C16.238 1.08386 16.2345 1.08077 16.2313 1.07438C16.2281 1.0664 16.2281 1.05692 16.2313 1.04744C16.2345 1.03796 16.2362 1.03166 16.2413 1.02528C16.2465 1.02049 16.2496 1.0141 16.2546 1.01101L16.2596 1.00631L16.2679 1.00781ZM13.6884 2.20425H13.7049C13.7281 2.23759 13.7399 2.25186 13.7664 2.32312C13.7698 2.33429 13.7698 2.35176 13.7664 2.37711C13.7598 2.41024 13.7664 2.41513 13.8014 2.43559L13.8064 2.44039L13.8014 2.45625C13.8014 2.45625 13.8014 2.46095 13.7964 2.46095C13.7899 2.46573 13.7681 2.47202 13.7514 2.46573C13.7398 2.44987 13.7347 2.4324 13.7231 2.42282C13.7165 2.41185 13.7065 2.34198 13.7065 2.32152H13.7031C13.7031 2.30884 13.7031 2.28659 13.6865 2.26124C13.6815 2.25644 13.6815 2.25644 13.6714 2.26124L13.6865 2.20266L13.6884 2.20425ZM13.8163 2.51334C13.8163 2.51334 13.8282 2.50216 13.8331 2.49907C13.8481 2.49118 13.8496 2.50216 13.8631 2.50216C13.8631 2.50216 13.8797 2.52283 13.883 2.52602C13.898 2.54019 13.9446 2.56724 13.8998 2.58141C13.8781 2.58939 13.8549 2.56713 13.8332 2.56713C13.8199 2.56713 13.8049 2.57811 13.7917 2.56713C13.7883 2.56394 13.765 2.52272 13.7717 2.52272C13.785 2.52272 13.7949 2.52272 13.8067 2.51793C13.8064 2.51803 13.813 2.51484 13.8163 2.51334ZM13.7147 2.53231H13.6999C13.6999 2.53231 13.6882 2.52112 13.6765 2.51644V2.4831C13.6765 2.4831 13.6882 2.47841 13.6932 2.47841C13.7048 2.4831 13.7097 2.50536 13.7097 2.50536C13.7215 2.51644 13.7163 2.51963 13.7146 2.53061L13.7147 2.53231ZM15.0181 4.08215C15.0114 4.1044 15.0014 4.14712 14.8982 4.2074C14.84 4.24223 14.84 4.31988 14.8283 4.37697C14.8218 4.41968 14.8152 4.4625 14.8117 4.50541C14.8069 4.53865 14.8069 4.57188 14.7984 4.60202C14.7918 4.62897 14.7751 4.65282 14.7668 4.67807C14.7535 4.71929 14.7518 4.76051 14.745 4.80332C14.7418 4.82708 14.7403 4.85073 14.7301 4.87458C14.7301 4.87927 14.6968 4.92848 14.6951 4.92848C14.0328 4.45311 13.6 3.6987 13.6 2.84938L13.5948 2.84619C13.6315 2.86525 13.6815 2.84619 13.7181 2.8367C13.738 2.83041 13.8413 2.79079 13.8529 2.81774C13.868 2.84619 13.8397 2.86525 13.8215 2.8874C13.8064 2.90327 13.7713 2.94759 13.7915 2.96665C13.8248 2.99828 13.8813 2.9381 13.9229 2.96665L14.1543 3.20438C14.1658 3.21705 14.1709 3.23282 14.1825 3.2455C14.1958 3.25977 14.2092 3.27085 14.2242 3.28352C14.2524 3.30728 14.284 3.32634 14.3139 3.34849C14.3423 3.37065 14.3688 3.396 14.3839 3.42764C14.3989 3.45618 14.4006 3.48792 14.4006 3.51956C14.4006 3.53383 14.3939 3.55449 14.4006 3.56547C14.4055 3.58443 14.4488 3.56547 14.4654 3.56237H14.4754C14.4754 3.56237 14.4821 3.56237 14.4854 3.56716C14.492 3.57185 14.4988 3.57814 14.5038 3.58303C14.5137 3.59561 14.5188 3.60987 14.5254 3.62575C14.532 3.64012 14.5555 3.648 14.5371 3.68294C14.5304 3.6987 14.472 3.66866 14.4705 3.69711V3.72575C14.4754 3.74162 14.4854 3.73992 14.5038 3.74162C14.6519 3.7511 14.7884 3.81607 14.8981 3.90969C14.9313 3.93813 14.9615 3.96987 14.988 4.0047C14.9997 4.01897 15.0145 4.03634 15.0214 4.05221L15.0162 4.07915L15.0181 4.08215ZM15.0446 1.02847C15.0847 1.10921 14.9031 1.22339 14.8249 1.19015C14.7865 1.17428 14.7634 1.17428 14.7518 1.18536C14.7117 1.22339 14.7017 1.27099 14.6834 1.31381C14.6669 1.34704 14.6385 1.36132 14.6037 1.3677C14.5137 1.38357 14.4221 1.43427 14.3438 1.48178C14.259 1.53567 14.1841 1.60055 14.1275 1.67669C13.8113 2.06972 13.8113 2.076 13.7979 2.09667C13.7946 2.04916 13.8046 1.99995 13.8113 1.95414C13.8247 1.85424 13.8562 1.75594 13.9062 1.66561C14.0875 1.33287 14.3422 1.04124 14.6501 0.809803C14.6469 0.819285 14.6419 0.835155 14.6385 0.841438C14.6336 0.855812 14.6251 0.869981 14.6202 0.882661C14.6018 0.914296 14.5752 0.938151 14.5536 0.96819C14.5502 0.972984 14.5219 1.03166 14.5237 1.03166C14.5385 1.03166 14.5586 1.0126 14.5686 1.00631C14.6002 0.985656 14.6302 0.963503 14.6601 0.942839C14.7167 0.903317 14.7734 0.86679 14.8266 0.823972C14.8799 0.781162 14.9215 0.736747 14.9797 0.700419C15.013 0.681356 15.0613 0.643331 15.1029 0.649718H15.1079C15.1079 0.649718 15.1079 0.652912 15.1112 0.654509L15.1161 0.665587C15.1161 0.665587 15.1196 0.673471 15.1196 0.678262C15.1196 0.690937 15.0929 0.706706 15.0829 0.71469C15.0679 0.728962 15.0562 0.741637 15.0414 0.755809C15.0298 0.768483 15.0048 0.790742 15.0048 0.80501C15.0048 0.8113 15.0082 0.819285 15.0148 0.823972C15.0282 0.838248 15.0781 0.815988 15.0896 0.809705C15.1145 0.79543 15.1363 0.781162 15.1613 0.770078C15.1263 0.828766 15.0764 0.888944 15.048 0.947632C15.0414 0.980863 15.0414 1.00631 15.048 1.02847H15.0446ZM15.2743 0.648022C15.2593 0.6592 15.2477 0.6592 15.2294 0.660696H15.2228C15.2228 0.660696 15.2178 0.668681 15.2162 0.674968C15.213 0.690837 15.1996 0.68924 15.1846 0.68924C15.1812 0.674968 15.1696 0.662294 15.1713 0.646525C15.1745 0.630656 15.1881 0.619478 15.1996 0.6085C15.1913 0.603709 15.173 0.598918 15.178 0.594128V0.58784C15.178 0.58784 15.193 0.568878 15.1962 0.567281C15.1996 0.567281 15.2078 0.570475 15.2112 0.571972H15.2363C15.2744 0.562491 15.3127 0.533947 15.3477 0.514984C15.3726 0.503906 15.4442 0.462687 15.5574 0.389731C15.5823 0.369171 15.4725 0.40081 15.3977 0.437337C15.296 0.484944 15.2911 0.500712 15.2511 0.480153C15.2462 0.480153 15.2445 0.469075 15.2377 0.470572C15.3726 0.413584 15.5159 0.369171 15.6606 0.33434C15.6656 0.33434 15.6707 0.337634 15.6739 0.337634C15.6455 0.38514 15.6007 0.423165 15.6007 0.423165C15.5657 0.450112 15.5207 0.46119 15.4875 0.488137C15.4991 0.534047 15.4991 0.535643 15.4092 0.584746C15.4041 0.58794 15.3942 0.589637 15.3925 0.580055C15.3876 0.568878 15.3826 0.559397 15.3777 0.564187C15.3277 0.580055 15.3127 0.625865 15.2744 0.651315L15.2743 0.648022ZM15.3959 0.862103C15.3794 0.857309 15.3843 0.846232 15.3843 0.846232C15.3959 0.819186 15.4243 0.798726 15.4342 0.76539C15.4342 0.738443 15.5073 0.576862 15.5939 0.559397C15.6673 0.548318 15.7287 0.473865 15.7287 0.473865C15.7287 0.473865 15.7287 0.469174 15.7238 0.469174C15.7188 0.469174 15.7172 0.469174 15.7122 0.464384C15.7122 0.448515 15.7238 0.442228 15.7273 0.437437C15.7339 0.437437 15.7422 0.442228 15.7489 0.453305C15.7771 0.437437 15.7838 0.399412 15.8056 0.383543C15.8504 0.350309 15.9071 0.32965 15.952 0.298012C15.9636 0.293122 15.9685 0.282143 15.9753 0.275756H15.9718C16.065 0.263081 16.1597 0.256793 16.2547 0.2536C16.2263 0.301206 16.1965 0.351806 16.1616 0.394622H16.1647C16.1348 0.429553 16.1165 0.453305 16.1149 0.464384C16.11 0.48654 16.11 0.507199 16.0999 0.523068C16.0883 0.538937 16.0766 0.538937 16.0766 0.527759C16.0714 0.51189 16.0814 0.494524 16.0648 0.480153C16.0531 0.469075 16.0366 0.491231 16.0366 0.491231C16.0249 0.513487 16.0531 0.518178 16.0531 0.534047C16.0531 0.534047 15.9634 0.614987 15.9001 0.600615C15.8766 0.584746 15.8717 0.584746 15.86 0.600615C15.8485 0.611694 15.8485 0.616384 15.7684 0.676665C15.7569 0.681456 15.7535 0.687843 15.7468 0.687843C15.7468 0.687843 15.7468 0.683053 15.7419 0.671974C15.7419 0.649718 15.7251 0.629059 15.5373 0.806612C15.464 0.87637 15.4523 0.887447 15.3957 0.865293L15.3959 0.862103ZM16.2216 1.2186C16.2216 1.2186 16.2164 1.25193 16.1932 1.29944C16.1765 1.35333 16.125 1.34225 16.1133 1.31541C16.1017 1.29315 16.1284 1.22339 16.1284 1.22339C16.135 1.21231 16.1516 1.21231 16.1566 1.20762C16.1683 1.19644 16.1633 1.18057 16.1733 1.17439C16.1801 1.1681 16.1899 1.1681 16.2 1.16969C16.2217 1.17598 16.2264 1.19973 16.2182 1.2172H16.2216V1.2186ZM15.9518 0.738443C15.9402 0.743134 15.9186 0.748024 15.9186 0.732156C15.9186 0.721077 15.9535 0.673471 15.9535 0.673471C15.9535 0.66878 15.9652 0.66878 15.9652 0.662393C15.9703 0.662393 15.977 0.657603 15.977 0.657603C15.9887 0.700419 15.9887 0.705209 16.0219 0.690937C16.0618 0.668681 16.0668 0.668681 16.0718 0.675068C16.0869 0.686146 16.0953 0.713093 16.0868 0.728962C16.0752 0.751118 16.052 0.751118 16.052 0.751118C16.0403 0.751118 16.0153 0.760596 15.9787 0.778062C15.9504 0.789147 15.9504 0.778062 15.9504 0.744831C15.9571 0.738543 15.9571 0.736847 15.9504 0.74004L15.9518 0.738443ZM15.8835 3.36745C15.8587 3.35329 15.837 3.35009 15.8155 3.32624C15.7905 3.2977 15.7686 3.26446 15.7571 3.22963C15.7421 3.1932 15.7437 3.15358 15.7339 3.11396C15.7238 3.07593 15.7071 3.03631 15.6939 2.99669C15.6822 2.96346 15.6622 2.90956 15.6739 2.87473C15.6739 2.87473 15.7755 2.56245 15.7871 2.54508C15.8136 2.50865 15.8503 2.47532 15.882 2.44368C15.9101 2.41344 15.9403 2.3834 15.9702 2.35335C16.0201 2.30266 16.0733 2.25505 16.1333 2.21064C16.2496 2.12511 16.3846 2.0792 16.5293 2.05694C16.5759 2.04905 16.6226 2.04277 16.6692 2.04107C16.6941 2.03788 16.7207 2.03638 16.7457 2.03638C16.7674 2.03638 16.8072 2.0269 16.8255 2.03638C16.8289 2.03638 16.8322 2.04107 16.8356 2.04277C16.9089 2.10454 16.9305 2.21543 17.0337 2.24557C17.1469 2.2788 17.2317 2.09347 17.3349 2.19158C17.36 2.21533 17.3832 2.2312 17.4165 2.23759C17.4466 2.24557 17.4799 2.24707 17.5114 2.25026C17.558 2.25335 17.613 2.25974 17.6579 2.23759C17.7179 2.20904 17.7761 2.15675 17.781 2.09018C17.786 2.04267 17.7659 1.99347 17.7361 1.95404C17.7277 1.94137 17.7227 1.93339 17.7077 1.93019H17.6762C17.6762 1.93019 17.6712 1.93019 17.6695 1.93339C17.6695 1.93339 17.6661 1.93648 17.6647 1.93817C17.6262 2.00475 17.5547 2.02371 17.4799 2.00155C17.2418 1.78598 17.5764 1.70045 17.5764 1.70045C17.6229 1.68927 17.6496 1.7241 17.6912 1.73527H17.6995C17.7211 1.73527 17.7794 1.70683 17.7712 1.67978C17.7646 1.66391 17.7462 1.65124 17.7326 1.64016C17.7061 1.61801 17.6762 1.59735 17.6496 1.57519C17.6229 1.55454 17.6063 1.52928 17.5913 1.49915C17.5913 1.49915 17.5913 1.49445 17.5862 1.49445H17.5579C17.5579 1.49445 17.5579 1.49765 17.5579 1.49915C17.5546 1.51661 17.5546 1.53408 17.5546 1.55304C17.5247 1.5689 17.4931 1.5689 17.4581 1.55304C17.4581 1.55304 17.3267 1.57998 17.4014 1.72579C17.4014 1.75274 17.4082 1.76851 17.345 1.80663C17.3349 1.81302 17.2966 1.79715 17.2817 1.80185C17.2584 1.80663 17.2434 1.82091 17.2383 1.84306V1.84775C17.2383 1.85734 17.2733 1.8731 17.2801 1.88258C17.2866 1.89377 17.3165 1.94127 17.305 1.95235C17.2801 1.98089 17.2634 1.99207 17.2251 1.99517C17.2301 1.99517 17.2018 1.93967 17.2002 1.93498C17.1852 1.90953 17.167 1.88738 17.1487 1.86522C17.1036 1.80973 17.0503 1.75583 16.9938 1.71143C16.9539 1.68138 16.8906 1.63378 16.8339 1.64965C16.8339 1.65433 16.829 1.66552 16.829 1.6718C16.829 1.68608 16.8741 1.70982 16.8856 1.71621C16.9089 1.73039 16.9338 1.73987 16.9571 1.75264C17.0021 1.7765 17.0469 1.81452 17.0554 1.86362C17.0554 1.86671 17.0554 1.86832 17.0503 1.86832C17.0372 1.87151 17.0121 1.88568 17.0121 1.88897C17.0004 1.90165 16.9952 1.91433 16.9854 1.92859C16.9854 1.93169 16.9754 1.93169 16.9721 1.92859C16.6642 1.53397 16.4762 1.79226 16.4296 1.86832C16.4078 1.90325 16.413 1.94127 16.4029 1.96662C16.4029 1.97131 16.3996 1.9745 16.398 1.9777C16.3929 1.98249 16.3895 1.98399 16.383 1.98718C16.3147 2.02521 16.1015 2.14258 16.0749 1.99826V1.96972C16.1199 1.69076 16.1882 1.60364 16.2764 1.70034C16.2863 1.70982 16.3032 1.71771 16.318 1.7208C16.3213 1.7208 16.3331 1.71771 16.3331 1.71621C16.418 1.64646 16.3331 1.54186 16.3879 1.46731C16.4496 1.38656 16.5644 1.34225 16.5977 1.24075C16.6108 1.20433 16.5909 1.17099 16.576 1.13936C16.5693 1.12518 16.5608 1.10612 16.5608 1.09015C16.5608 1.0617 16.5841 1.0633 16.6092 1.05532H16.6125C16.6125 1.05532 16.6159 1.05532 16.6175 1.05842C16.6391 1.08226 16.6242 1.12189 16.6325 1.15043C16.6391 1.18366 16.6591 1.20902 16.6941 1.22019C16.7474 1.23596 16.8189 1.2169 16.8605 1.18686C16.8639 1.18686 16.8655 1.18217 16.8671 1.18057C16.8855 1.15692 16.8572 1.09654 16.8539 1.07119C16.8539 1.06021 16.8771 1.05542 16.8837 1.05542L16.9054 1.06021H16.9239C16.9405 1.05542 16.947 1.02218 16.9489 1.00781C16.9489 0.987252 16.9437 0.965098 16.9354 0.946037C16.9155 0.903317 16.8821 0.869981 16.8539 0.835155L16.7707 0.733653C16.7707 0.733653 16.729 0.694131 16.7307 0.686047C16.7072 0.82547 16.8654 0.950725 16.7656 1.09644C16.759 1.10452 16.7241 1.08546 16.7192 1.08226C16.7042 1.07438 16.6924 1.0633 16.6808 1.05063C16.6642 1.03476 16.6243 0.987252 16.5942 1.00302C16.5892 1.00621 16.5558 1.03157 16.5558 1.02997C16.4428 0.944434 16.5909 0.556103 16.6175 0.495822C16.6242 0.495822 16.6242 0.491031 16.6291 0.491031C16.7307 0.479953 16.8156 0.545025 16.9122 0.560794C16.9169 0.556003 16.9287 0.549715 16.9354 0.544925C16.9287 0.540134 16.9239 0.529057 16.9239 0.522769C16.9287 0.5069 16.9354 0.5069 16.9354 0.5069C16.9239 0.495722 16.9854 0.517878 17.0252 0.522769C17.0252 0.517978 17.0302 0.5069 17.0302 0.495722C17.0252 0.490931 17.0187 0.479854 17.0187 0.473566C17.0252 0.468875 17.0352 0.462488 17.0418 0.462488C17.08 0.473566 17.1051 0.475163 17.1219 0.467178C17.0719 0.429153 16.9803 0.365778 16.9803 0.365778C16.962 0.34991 16.9538 0.330947 16.9521 0.313482C18.1738 0.576662 19.0892 1.61462 19.0892 2.85547C19.0892 2.86175 19.0892 2.86814 19.0892 2.87453L19.0792 2.86974H19.0825C19.0658 2.84279 19.0591 2.81584 19.0475 2.7889C19.0242 2.72872 18.9993 2.66834 18.976 2.60815C18.9627 2.57801 18.9527 2.54787 18.9393 2.51784C18.9276 2.49099 18.9226 2.46244 18.9076 2.4354C18.9027 2.42272 18.8744 2.41174 18.8678 2.42911C18.8678 2.43231 18.8644 2.4339 18.8627 2.4354H18.8578C18.8311 2.4354 18.8127 2.38949 18.7961 2.37043C18.7812 2.35456 18.7647 2.34039 18.7496 2.32611C18.7412 2.31813 18.7346 2.31024 18.7295 2.30076C18.7198 2.28968 18.7146 2.29118 18.7013 2.29118H18.6746C18.6364 2.29118 18.6013 2.28649 18.5649 2.28649C18.5481 2.28649 18.5265 2.28649 18.5098 2.29118C18.4965 2.29118 18.4716 2.29597 18.465 2.30555C18.455 2.31503 18.4599 2.33091 18.4732 2.3341C18.4932 2.33878 18.5164 2.34677 18.5332 2.35615C18.5596 2.37212 18.5814 2.39258 18.5964 2.42112C18.6248 2.48141 18.5964 2.54787 18.553 2.59069L18.5465 2.60656C18.5465 2.62243 18.5414 2.64458 18.5414 2.65406C18.5347 2.72862 18.5214 2.81884 18.4632 2.87592C18.4482 2.8903 18.4333 2.89818 18.4149 2.90766C18.4115 2.90766 18.4099 2.91085 18.4083 2.91246C18.3999 2.91715 18.395 2.92822 18.3883 2.93461C18.3766 2.94419 18.3634 2.95208 18.35 2.95836C18.3184 2.97104 18.2819 2.94569 18.2568 2.93142C18.2284 2.91555 18.2036 2.8902 18.1752 2.87443C18.1669 2.86964 18.1587 2.86485 18.1502 2.86325C18.087 2.85856 18.1786 2.99479 18.1919 3.01545C18.2102 3.044 18.2318 3.10268 18.2651 3.11845C18.2918 3.13112 18.3267 3.10098 18.3467 3.08681C18.3617 3.07573 18.3766 3.06775 18.3932 3.05976C18.4032 3.05507 18.4348 3.0439 18.4414 3.05507C18.468 3.0915 18.4713 3.16116 18.468 3.21985C18.4647 3.27055 18.4515 3.31805 18.4313 3.36716C18.4097 3.42105 18.3799 3.47175 18.3498 3.52096L18.3349 3.55429L18.3283 3.56526C18.2482 3.64451 18.1667 3.86478 18.0834 4.22935C18.0736 4.27217 18.0586 4.30062 18.0286 4.33545C18.0086 4.3608 17.9837 4.38136 17.9586 4.40361C17.8987 4.45431 17.834 4.49712 17.8072 4.57158C17.7906 4.62228 17.7708 4.67937 17.7157 4.70312C17.6958 4.7109 17.6707 4.74903 17.6542 4.7634C17.6277 4.78706 17.6011 4.80942 17.5742 4.83307C17.5177 4.87748 17.4695 4.92967 17.4129 4.97409C17.3729 5.00572 17.3047 5.04864 17.2513 5.04864C17.2363 5.04864 17.2248 5.04545 17.2114 5.04385H17.1616C17.1416 5.03756 17.1232 4.99485 17.1166 4.97728C17.1032 4.95672 17.0933 4.93457 17.0832 4.91241C17.0682 4.88077 17.055 4.84744 17.0449 4.8157C17.035 4.78556 17.0383 4.75712 17.0333 4.72687C17.0283 4.71101 17.0218 4.69833 17.0233 4.68257C17.0233 4.6652 17.0299 4.64304 17.0299 4.62557C17.0332 4.58915 17.0383 4.55422 17.0433 4.51789C17.0498 4.4608 17.0564 4.40211 17.0597 4.34513C17.0648 4.26908 17.0681 4.18983 17.053 4.11378C17.0314 3.99651 16.965 3.89182 16.9084 3.78893C16.8916 3.75569 16.8467 3.72555 16.8201 3.6986C16.7702 3.64471 16.7038 3.60509 16.6237 3.60509C16.4357 3.60978 16.3309 3.60509 16.3074 3.59401C16.2908 3.58443 16.2508 3.58922 16.2309 3.58772C16.2109 3.58772 16.1876 3.58293 16.1676 3.57974C16.1376 3.57505 16.1076 3.57026 16.0793 3.56077C16.0311 3.54341 15.9796 3.49261 15.9563 3.45139C15.9346 3.41496 15.9246 3.39281 15.8847 3.36905L15.8835 3.36745ZM18.0389 4.66689V4.65102C18.0389 4.65102 18.0273 4.63516 18.0674 4.54952V4.54324C18.0838 4.51 18.1073 4.47677 18.1239 4.44184C18.1388 4.39902 18.1456 4.35631 18.1689 4.31349C18.1739 4.29752 18.1922 4.29123 18.2137 4.27067C18.2486 4.27547 18.2869 4.28175 18.3153 4.16927C18.3221 4.1534 18.3386 4.08365 18.3853 4.06777C18.4137 4.06298 18.4137 4.07885 18.4202 4.10101C18.4152 4.14382 18.4035 4.22946 18.3853 4.27377C18.3703 4.32127 18.3569 4.34343 18.3403 4.36568C18.1704 4.62418 18.1237 4.65272 18.0389 4.66689Z" fill="#CEF65F"/>
</g>
<defs>
<clipPath id="clip0_21_10">
<rect width="81" height="31" fill="white"/>
</clipPath>
</defs>
</svg>
